# xmcd
# 
# Track frame offsets:
#     225
#     36800
#     104880
#     157685
#     218195
#     280775
# 
# Disc length: 3895
# 
# Revision: 1
# Processed by: cddbd v1.5.2PL0 Copyright (c) Steve Scherf et al.
# Submitted via: BonkEnc v1.0.8
# 
DISCID=4f0f3406
DTITLE=カンカワ - Harlem Swing
DYEAR=1992
DGENRE=Jazz
TTITLE0=Monk's Dream
TTITLE1=Softly As In A Morning Sunrise
TTITLE2=Stella By Starlight
TTITLE3=Love Man
TTITLE4=Stormy Monday
TTITLE5=T-Bone Steak
EXTD=YEAR: 1998
EXTT0=
EXTT1=
EXTT2=
EXTT3=
EXTT4=
EXTT5=
PLAYORDER=
